<?xml version="1.0" encoding="utf-8"?>
<!-- Generator: Adobe Illustrator 24.0.1, SVG Export Plug-In . SVG Version: 6.00 Build 0)  -->
<svg version="1.1" id="Capa_1" xmlns="http://www.w3.org/2000/svg" xmlns:xlink="http://www.w3.org/1999/xlink" x="0px" y="0px"
	 viewBox="0 0 1080 1080" style="enable-background:new 0 0 1080 1080;" xml:space="preserve">
<style type="text/css">
	.st0{fill:#A73324;}
	.st1{fill:#A23330;}
	.st2{fill:#282828;}
</style>
<g>
	<g>
		<g>
			<g>
				<g>
					<path class="st0" d="M925.7,379.3c0.7,35.5-27.5,64.8-63,65.5c-35.5,0.7-64.8-27.5-65.5-63c-0.7-35.5,27.5-64.8,63-65.5
						C895.7,315.6,925,343.8,925.7,379.3z"/>
				</g>
			</g>
			<g>
				<g>
					<path class="st1" d="M810.3,298.2c0.6,30.9-23.9,56.4-54.8,57c-30.9,0.6-56.4-23.9-57-54.8c-0.6-30.9,24-56.4,54.8-57
						C784.2,242.8,809.7,267.3,810.3,298.2z"/>
				</g>
			</g>
			<g>
				<g>
					<path class="st0" d="M687,270c0.5,28.1-21.8,51.3-49.8,51.8c-28.1,0.5-51.3-21.7-51.8-49.8c-0.5-28.1,21.8-51.3,49.8-51.8
						C663.2,219.7,686.4,241.9,687,270z"/>
				</g>
			</g>
			<g>
				<g>
					<path class="st0" d="M970.1,496.8c0.5,28.1-21.8,51.3-49.8,51.8c-28.1,0.5-51.3-21.7-51.8-49.8c-0.5-28.1,21.8-51.3,49.8-51.8
						C946.4,446.5,969.6,468.7,970.1,496.8z"/>
				</g>
			</g>
			<g>
				<g>
					<path class="st0" d="M566.1,294.7c0.5,25.5-19.8,46.6-45.3,47.1c-25.5,0.5-46.6-19.8-47.1-45.3c-0.5-25.5,19.8-46.6,45.3-47.1
						C544.5,248.9,565.6,269.2,566.1,294.7z"/>
				</g>
			</g>
			<g>
				<g>
					<path class="st0" d="M471.3,354c0.4,22.4-17.4,41-39.8,41.4c-22.4,0.4-41-17.4-41.4-39.8c-0.4-22.5,17.4-41,39.8-41.4
						C452.3,313.7,470.9,331.5,471.3,354z"/>
				</g>
			</g>
			<g>
				<g>
					<path class="st0" d="M807.7,805.4c0.3,13-10.1,23.7-23.1,24c-13,0.3-23.7-10.1-24-23.1c-0.3-13,10.1-23.7,23.1-24
						C796.7,782.1,807.4,792.4,807.7,805.4z"/>
				</g>
			</g>
			<g>
				<g>
					<path class="st0" d="M744.1,833.8c0.2,10.2-7.9,18.6-18.1,18.8c-10.2,0.2-18.6-7.9-18.8-18.1c-0.2-10.2,7.9-18.6,18.1-18.8
						C735.5,815.5,743.9,823.6,744.1,833.8z"/>
				</g>
			</g>
			<g>
				<g>
					<path class="st0" d="M505.1,802.5c0.2,8.4-6.5,15.3-14.9,15.5c-8.4,0.2-15.3-6.5-15.5-14.9c-0.2-8.4,6.5-15.3,14.9-15.5
						C498,787.5,505,794.1,505.1,802.5z"/>
				</g>
			</g>
			<g>
				<g>
					<path class="st0" d="M557.9,831.7c0.2,8.4-6.5,15.3-14.9,15.5c-8.4,0.2-15.3-6.5-15.5-14.9c-0.2-8.4,6.5-15.3,14.9-15.5
						C550.8,816.7,557.7,823.3,557.9,831.7z"/>
				</g>
			</g>
			<g>
				<g>
					<path class="st0" d="M616.1,844.3c0.2,8.4-6.5,15.3-14.9,15.5c-8.4,0.2-15.3-6.5-15.5-14.9c-0.2-8.4,6.5-15.3,14.9-15.5
						C609,829.2,615.9,835.9,616.1,844.3z"/>
				</g>
			</g>
			<g>
				<g>
					<path class="st0" d="M676.8,844.3c0.2,8.4-6.5,15.3-14.9,15.5c-8.4,0.2-15.3-6.5-15.5-14.9c-0.2-8.4,6.5-15.3,14.9-15.5
						C669.7,829.2,676.6,835.9,676.8,844.3z"/>
				</g>
			</g>
		</g>
		<g>
			<path class="st0" d="M82.4,466v98.4H56.8V426.7h27.8l66.2,82.8l66.2-82.8h27.8v137.6H219V466l-68.3,85.5L82.4,466z"/>
			<path class="st0" d="M396.4,429v27H266.1v-27H396.4z M266.1,510.2v-27h130.2v27H266.1z M396.4,537.3v27H266.1v-27H396.4z"/>
			<path class="st0" d="M561,429v27h-59.8v108.3h-25.6V456h-57.7v-27H561z"/>
			<path class="st0" d="M566.9,564.3h-29.1L606.7,429h26.9l68.9,135.3h-29.1l-53.3-104.5L566.9,564.3z"/>
		</g>
		<g>
			<path class="st2" d="M158.1,597.4c-4.4-3.6-9.5-6.3-15.5-8.1c-6-1.8-12.5-2.7-19.7-2.7H56.8v30.8h36.1h7.6h20.7
				c2,0,4,0.2,5.8,0.6c1.8,0.4,3.3,1.1,4.6,2.1c1.3,1,2.3,2.3,3.1,3.9c0.7,1.6,1.1,3.6,1.1,6c0,2.4-0.4,4.5-1.1,6.1
				c-0.7,1.6-1.8,2.9-3.1,3.9c-1.3,1-2.9,1.7-4.6,2.1c-1.8,0.4-3.7,0.6-5.8,0.6h-20.7h-7.6H56.8V712h36.1v-38.6h30.1
				c7.2,0,13.7-0.9,19.7-2.7c6-1.8,11.1-4.5,15.5-8.1c4.3-3.6,7.7-8.1,10.1-13.6c2.4-5.4,3.6-11.8,3.6-19.1c0-7.2-1.2-13.6-3.6-19
				C165.8,605.5,162.4,601,158.1,597.4z"/>
			<path class="st2" d="M440.8,602.1c-6.3-5.5-13.6-9.8-22-12.8c-8.4-3-17.2-4.5-26.5-4.5c-9.3,0-18.2,1.5-26.5,4.5
				c-8.4,3-15.7,7.2-22,12.8c-6.3,5.5-11.3,12.3-15,20.3c-3.7,8-5.5,17-5.5,26.9c0,10,1.8,18.9,5.5,26.9c3.7,8,8.7,14.7,15,20.3
				c6.3,5.5,13.6,9.8,22,12.8c8.4,3,17.2,4.5,26.5,4.5c9.3,0,18.2-1.5,26.5-4.5c8.4-3,15.7-7.2,22-12.8c6.3-5.5,11.3-12.3,15-20.3
				c3.7-8,5.5-17,5.5-26.9c0-10-1.8-18.9-5.5-26.9C452.1,614.4,447.1,607.6,440.8,602.1z M422.8,663.3c-1.6,4.1-3.9,7.7-6.8,10.6
				c-2.9,2.9-6.4,5.2-10.4,6.7c-4,1.6-8.5,2.4-13.3,2.4c-4.8,0-9.3-0.8-13.3-2.4c-4-1.6-7.5-3.8-10.4-6.7c-2.9-2.9-5.2-6.4-6.8-10.6
				c-1.6-4.1-2.4-8.8-2.4-14c0-5.2,0.8-9.9,2.4-14c1.6-4.1,3.9-7.7,6.8-10.6c2.9-2.9,6.4-5.2,10.4-6.7c4-1.6,8.5-2.4,13.3-2.4
				c4.8,0,9.3,0.8,13.3,2.4c4,1.6,7.5,3.8,10.4,6.7c2.9,2.9,5.2,6.4,6.8,10.6c1.6,4.1,2.4,8.8,2.4,14
				C425.2,654.5,424.4,659.1,422.8,663.3z"/>
			<path class="st2" d="M538.3,661.6c0,3.5-0.2,6.6-0.7,9.3c-0.5,2.7-1.3,4.9-2.4,6.7c-1.2,1.8-2.8,3.1-4.8,4
				c-2,0.9-4.6,1.4-7.7,1.4c-1.9,0-3.6-0.2-5-0.6c-1.5-0.4-2.8-0.9-3.8-1.5c-1.1-0.6-2-1.3-2.8-2.1c-0.8-0.8-1.4-1.6-1.9-2.4
				c-1.2-1.9-2-4.2-2.3-6.7h-36.1c0.6,8.3,2.8,15.7,6.7,22.1c1.6,2.7,3.7,5.4,6.2,8.1c2.5,2.7,5.6,5,9.2,7.1c3.6,2.1,7.9,3.7,12.8,5
				c4.9,1.3,10.6,1.9,17,1.9c8.2,0,15.5-1.1,21.9-3.3c6.4-2.2,11.8-5.4,16.2-9.5c4.4-4.2,7.8-9.3,10.1-15.4
				c2.3-6.1,3.5-13.1,3.5-20.9v-78h-36.1V661.6z"/>
			<polygon class="st2" points="632.6,663.6 691.9,663.6 691.9,633.6 632.6,633.6 632.6,633.5 596.5,633.5 596.5,663.6 632.6,663.6 
							"/>
			<polygon class="st2" points="632.6,617.4 702.5,617.4 702.5,586.6 596.5,586.6 596.5,617.4 632.6,617.4 			"/>
			<polygon class="st2" points="632.6,681.2 596.5,681.2 596.5,712 703.2,712 703.2,681.2 632.6,681.2 			"/>
			<path class="st2" d="M757.6,624.7c2.5-2.9,5.5-5.2,9-6.7c3.5-1.6,7.4-2.4,11.7-2.4c2.3,0,4.3,0.2,6.2,0.5c1.8,0.3,3.5,0.8,5,1.4
				c1.5,0.6,2.8,1.2,3.9,1.9c1.1,0.7,2.1,1.4,2.9,2.2c1.9,1.8,3.4,3.8,4.3,6h38.9c-2.5-8-6.4-15.1-11.6-21.4c-2.2-2.7-4.9-5.3-8-7.9
				c-3.1-2.6-6.7-4.9-10.7-6.9c-4.1-2-8.7-3.6-13.8-4.9c-5.1-1.2-10.9-1.8-17.2-1.8c-8.9,0-17.2,1.5-25.1,4.5
				c-7.8,3-14.7,7.2-20.5,12.8c-5.8,5.5-10.4,12.3-13.8,20.3c-3.4,8-5.1,17-5.1,26.9c0,10,1.7,18.9,5.1,26.9c3.4,8,8,14.7,13.8,20.3
				c5.8,5.5,12.7,9.8,20.5,12.8c7.8,3,16.2,4.5,25.1,4.5c6.5,0,12.3-0.6,17.5-1.8c5.2-1.2,9.8-2.8,13.9-4.9c4.1-2,7.7-4.3,10.7-6.9
				c3.1-2.6,5.7-5.2,7.9-7.9c5.2-6.2,9-13.4,11.3-21.4h-38.9c-1,2.3-2.4,4.3-4.3,6c-1.7,1.5-3.9,2.9-6.9,4.2
				c-2.9,1.3-6.7,1.9-11.2,1.9c-4.3,0-8.2-0.8-11.7-2.4c-3.5-1.6-6.5-3.8-9-6.7c-2.5-2.9-4.4-6.4-5.7-10.6c-1.3-4.1-2-8.8-2-14
				c0-5.2,0.7-9.9,2-14C753.2,631.2,755.1,627.6,757.6,624.7z"/>
			<polygon class="st2" points="849.3,586.6 849.3,617.4 892.8,617.4 892.8,712 928.9,712 928.9,617.4 972.4,617.4 972.4,586.6 			
				"/>
			<path class="st2" d="M307.4,628.8c0-6.1-0.9-11.8-2.6-16.9c-1.8-5.2-4.4-9.6-8.1-13.3c-3.6-3.7-8.2-6.6-13.8-8.7
				c-5.6-2.1-12.2-3.1-19.9-3.1h-70.7v30.8h36.1h4.5h25.9c3.9,0,7,0.9,9.3,2.7c2.2,1.8,3.4,4.7,3.4,8.7c0,4-1.1,6.9-3.4,8.7
				c-2.2,1.7-5.3,2.6-9.3,2.6h-25.9h-4.5h-36.1v72h36.1v-41.2h19.9l22.9,41.2h37.9l-25.3-45.4C299.5,659,307.4,646.4,307.4,628.8z"
				/>
		</g>
		<g>
			<path class="st2" d="M101.8,731.2h4.2L89.3,764h-4.5l-1.2-16.7c-0.1-1.8-0.3-5.5-0.6-11.2c-1.1,2.4-3,6.2-5.6,11.2L68.9,764h-4.5
				L62,731.2h4l1.1,16.2c0.3,4.7,0.5,8.6,0.6,11.8c2.2-4.6,4.1-8.6,5.8-11.9l8.1-16.1h4.5l1.1,16.1c0.3,4,0.5,7.9,0.7,11.9
				c1.5-3.1,3.4-7,5.8-11.8L101.8,731.2z"/>
			<path class="st2" d="M136.5,734.7h-19.5l-2.3,10.5h17.6l-0.8,3.5h-17.6l-2.6,11.8h19.3l-0.8,3.5h-23.3l7.2-32.8h23.5L136.5,734.7
				z"/>
			<path class="st2" d="M159.6,761.7c-2.3-2-3.2-4.8-2.7-8.6h4.1c-0.8,5.6,2.5,8.1,8.8,8.1c5.2,0,8.2-1.9,8.9-5.2
				c0.8-3.7-1-5.5-6.8-6.8l-2.9-0.6c-2.8-0.6-4.9-1.8-6.5-3.4c-1.6-1.7-2.1-3.9-1.5-6.7c1.1-5.2,6-8.1,12.8-8.1c4.6,0,7.8,1,9.6,2.9
				c1.7,1.9,2.3,4.4,1.9,7.4h-4c0.7-4.4-1.2-6.8-7.7-6.8c-5,0-7.8,1.6-8.5,4.8c-0.7,3.5,1,5.3,6.6,6.5l2.9,0.6
				c6.7,1.5,9.5,5,8.3,10.5c-1.1,5.2-6,8.3-13.5,8.3C165.2,764.7,161.9,763.7,159.6,761.7z"/>
			<path class="st2" d="M219.6,734.7h-19.5l-2.3,10.5h17.6l-0.8,3.5H197l-2.6,11.8h19.3l-0.8,3.5h-23.3l7.2-32.8h23.5L219.6,734.7z"
				/>
			<path class="st2" d="M253.2,731.2l-0.8,3.5H241l-6.5,29.3h-4.1l6.5-29.3h-11.5l0.8-3.5H253.2z"/>
			<path class="st2" d="M302.1,731.2h4.8l-17.2,19.6l-2.9,13.2h-4l2.9-13.2l-8.6-19.6h4.3l3.3,7.7c0.6,1.3,1.7,4.2,3.5,8.7
				c3-3.6,5.5-6.5,7.4-8.7L302.1,731.2z"/>
			<path class="st2" d="M307.8,759.8c-2.4-3.3-2.9-7.7-1.8-13.2c1-4.7,3.3-8.5,6.9-11.6c3.6-3,7.7-4.6,12.4-4.6
				c4.9,0,8.6,1.6,10.9,4.8c2.4,3.2,3,7.5,1.9,12.9c-1,4.8-3.3,8.8-6.9,11.9c-3.6,3.1-7.7,4.7-12.5,4.7
				C313.9,764.7,310.2,763.1,307.8,759.8z M328.7,757.5c2.7-2.4,4.5-5.6,5.4-9.6c1.9-8.6-1.7-13.9-9-13.9c-3.6,0-6.8,1.2-9.5,3.6
				c-2.7,2.4-4.5,5.6-5.4,9.5c-1.9,8.7,1.6,14,8.9,14C322.8,761.2,325.9,760,328.7,757.5z"/>
			<path class="st2" d="M345.8,749.7l4.2-18.6h4l-4.2,19.3c-1.6,7.1,1,10.7,7.5,10.7c5.9,0,9.6-3.1,10.9-9.4l4.5-20.6h4l-4.6,21.4
				c-1.8,8.1-6.8,12.1-15.1,12.1C348,764.7,343.5,759.5,345.8,749.7z"/>
			<path class="st2" d="M399.5,731.2c3.6,0,6.4,0.8,8.3,2.5s2.6,4.2,1.9,7.4c-0.8,3.5-3.8,6.2-7.6,7.1c3.2,0.8,4.4,2.9,3.7,7.2
				l-0.7,4.4c-0.3,1.8-0.2,3.2,0.3,4.2h-4.1c-0.5-1-0.5-2.4-0.1-4.4l0.8-4.2c0.6-3.8-0.8-5.4-4.8-5.4H386l-3,14h-4l7.2-32.8H399.5z
				 M399.2,734.7h-9.8l-2.6,11.8h10.8c4,0,7.3-2,8-5.5C406.6,736.6,403.9,734.7,399.2,734.7z"/>
			<path class="st0" d="M452.3,731.2c5.6,0,9.6,1.6,12.2,4.9c2.5,3.3,3.2,7.6,2.1,12.8c-1.1,5-3.2,8.8-6.3,11.3
				c-3.2,2.6-7.8,3.9-14,3.9h-15.3l7.2-32.8H452.3z M451.2,738.9h-5.1l-3.8,17.3h5.1c5.3,0,8.6-2.8,9.7-8.2
				C458.5,741.9,456,738.9,451.2,738.9z"/>
			<path class="st0" d="M492.9,731.2c9.4,0,13.2,4.2,11.8,10.5c-0.8,3.6-3.3,6-7.3,7.3c2.9,1.2,4.1,3.6,3.4,7.4l-0.7,4
				c-0.2,1.7-0.2,2.9,0,3.7h-9.8c-0.2-0.8-0.2-2,0.1-3.7l0.6-3.3c0.6-3.5-0.7-4.3-3.7-4.3h-4.9l-2.5,11.3h-9.5l7.2-32.8H492.9z
				 M489.3,745.9c3.2,0,5-1.2,5.5-3.5c0.6-2.7-0.6-4.1-3.4-4.1h-5.7l-1.7,7.6H489.3z"/>
			<path class="st0" d="M539.2,739.4H522l-0.9,4.3h15.7l-1.7,7.6h-15.7l-0.9,4.4h17.2l-1.8,8.2h-26.7l7.2-32.8H541L539.2,739.4z"/>
			<path class="st0" d="M564.6,764l-0.5-4.3h-13.3l-2.3,4.3h-10l19.2-32.8h11.4l5.3,32.8H564.6z M555.1,752.1h8.2l-0.9-7.6
				c-0.1-1.1-0.3-2.8-0.5-5.2c-1.2,2.3-2.1,4.1-2.7,5.2L555.1,752.1z"/>
			<path class="st0" d="M611.8,731.2h14.5l-7.2,32.8h-8.8l2-9.3c1.3-5.8,2.5-11,3.7-15.5l-3.7,7.5l-8.7,17.4h-7.7l-1.1-17.4
				c-0.2-4.2-0.3-6.6-0.4-7.2c-0.8,4.5-1.9,9.6-3.1,15.2l-2,9.3h-9.2l7.2-32.8h14.4l0.7,12.4c0.1,2,0.2,4.3,0.2,6.9
				c1.4-3,2.5-5.3,3.2-6.9L611.8,731.2z"/>
			<path class="st0" d="M628.4,753.2h9.2c-0.7,3.5,1.2,4.5,5.4,4.5c3.1,0,4.9-1.1,5.3-2.6c0.5-2.2-0.5-2.9-4.6-3.5l-2.6-0.4
				c-7.3-1.2-10.6-5.1-9.3-11.3c0.6-2.6,2.2-4.9,4.8-6.7c2.6-1.8,6-2.7,10.3-2.7c9.7,0,14.4,3.7,13.1,10.8h-9
				c0.4-2.6-0.9-3.8-4.6-3.8c-2.9,0-4.6,0.9-4.9,2.7c-0.4,2,0.8,2.7,4.2,3.3l2.7,0.5c7.8,1.3,11.1,4.7,9.7,11.1
				c-1.3,6.3-7.6,9.7-16.2,9.7C631.3,764.7,626.7,760.2,628.4,753.2z"/>
			<path class="st2" d="M682,764l7.2-32.8h4L686,764H682z"/>
			<path class="st2" d="M725.1,731.2h3.9l-7.2,32.8h-4.7l-7.5-16.9c-1.9-4.3-3.5-8.1-4.7-11.4c-1,5-2.2,10.8-3.6,17.2l-2.4,11.1H695
				l7.2-32.8h4.7l7.5,16.9c1.9,4.4,3.5,8.2,4.7,11.4c1.4-7,2.6-12.7,3.6-17.3L725.1,731.2z"/>
			<path class="st0" d="M782.1,731.2h14.5l-7.2,32.8h-8.8l2-9.3c1.3-5.8,2.5-11,3.7-15.5l-3.7,7.5L774,764h-7.7l-1.1-17.4
				c-0.2-4.2-0.3-6.6-0.4-7.2c-0.8,4.5-1.9,9.6-3.1,15.2l-2,9.3h-9.2l7.2-32.8h14.4l0.7,12.4c0.1,2,0.2,4.3,0.2,6.9
				c1.4-3,2.5-5.3,3.2-6.9L782.1,731.2z"/>
			<path class="st0" d="M802.9,759.7c-2.9-3.3-3.7-7.8-2.4-13.6c1-4.6,3.3-8.3,7.1-11.3c3.8-2.9,8.2-4.4,13.3-4.4
				c5.4,0,9.6,1.7,12.4,4.9c2.8,3.3,3.6,7.8,2.3,13.6c-1,4.6-3.4,8.4-7.1,11.3c-3.8,2.9-8.1,4.4-13.2,4.4
				C809.8,764.7,805.7,763.1,802.9,759.7z M825.8,748c1.3-6.1-1-9.6-6.1-9.6c-4.6,0-8.3,3.4-9.6,8.9c-1.3,5.9,1,9.4,6.1,9.4
				C820.8,756.7,824.6,753.4,825.8,748z"/>
			<path class="st0" d="M871.9,731.2l-1.8,8.2h-10l-5.4,24.6h-9.5l5.4-24.6h-10l1.8-8.2H871.9z"/>
			<path class="st0" d="M871.4,764l7.2-32.8h9.5l-7.2,32.8H871.4z"/>
			<path class="st0" d="M894.3,759.7c-2.9-3.3-3.7-7.8-2.4-13.6c1-4.6,3.3-8.3,7.1-11.3c3.8-2.9,8.2-4.4,13.3-4.4
				c5.4,0,9.6,1.7,12.4,4.9c2.8,3.3,3.6,7.8,2.3,13.6c-1,4.6-3.4,8.4-7.1,11.3c-3.8,2.9-8.1,4.4-13.2,4.4
				C901.2,764.7,897.1,763.1,894.3,759.7z M917.2,748c1.3-6.1-1-9.6-6.1-9.6c-4.6,0-8.3,3.4-9.6,8.9c-1.3,5.9,1,9.4,6.1,9.4
				C912.3,756.7,916,753.4,917.2,748z"/>
			<path class="st0" d="M959.6,731.2h9l-7.2,32.8h-9.8l-4.6-11.7c-1.5-3.6-2.5-6.5-3-8.5c-0.9,4.8-1.9,9.8-3,14.8l-1.2,5.3h-9
				l7.2-32.8h9.8l4.6,11.7c1.5,3.8,2.5,6.6,3,8.5c0.9-5,1.9-9.9,3-14.8L959.6,731.2z"/>
		</g>
	</g>
	<g>
		<path class="st2" d="M1007.4,586.5c4.5,0,8.2,1.5,11.3,4.5c3.1,3,4.5,6.6,4.5,10.9c0,4.3-1.5,7.9-4.5,10.9
			c-3.1,3-6.8,4.5-11.3,4.5c-4.5,0-8.2-1.5-11.3-4.5c-3.1-3-4.6-6.6-4.6-10.9c0-4.3,1.6-7.9,4.6-10.9
			C999.2,588,1002.9,586.5,1007.4,586.5z M1016.4,610.7c2.4-2.4,3.6-5.3,3.6-8.8c0-3.4-1.2-6.4-3.6-8.8c-2.4-2.4-5.4-3.6-9-3.6
			s-6.6,1.2-9,3.6c-2.4,2.4-3.6,5.3-3.6,8.8c0,3.4,1.2,6.4,3.6,8.8c2.4,2.4,5.5,3.6,9,3.6S1014,613.1,1016.4,610.7z M1013.8,607.4
			c0.1,1,0.3,1.8,0.8,2.5h-2.9c-0.3-0.5-0.6-1.3-0.6-2.5l-0.1-1.7c-0.2-1.8-0.6-2.4-2.3-2.4h-4.5v6.6h-2.9v-16.5h7
			c3.6,0,5.8,1.7,5.8,4.6c0,1.9-0.8,3.2-2.4,3.9c1.2,0.5,1.8,1.5,1.9,3.1L1013.8,607.4z M1008.5,600.7c1.8,0,2.6-0.8,2.6-2.3
			c0-1.6-1-2.3-2.9-2.3h-4.2v4.7H1008.5z"/>
	</g>
</g>
</svg>
